<svg height="448pt" viewBox="0 0 448 448" width="448pt" xmlns="http://www.w3.org/2000/svg"><path d="m264 40c0 22.089844-17.910156 40-40 40s-40-17.910156-40-40 17.910156-40 40-40 40 17.910156 40 40zm0 0"/><path d="m40 206.550781 11.96875 8.089844 4.632812-12.351563-16.601562-11.226562zm0 0"/><path d="m222.113281 320h24.558594l-14.574219-94.785156c-.066406-.402344-.097656-.808594-.097656-1.214844v-83.054688l-121.886719-60.945312h-110.113281v128h24v-88c0-4.417969 3.582031-8 8-8h64c2.625-.003906 5.085938 1.285156 6.582031 3.441406 1.496094 2.160156 1.839844 4.917969.914063 7.375l-47.496094 126.640625v86.542969c0 1.167969-.257812 2.324219-.753906 3.382812l-50.6875 108.617188h38.496094l52.945312-105.886719v-70.113281c0-3.417969 2.171875-6.453125 5.402344-7.5625 3.230468-1.109375 6.8125-.042969 8.910156 2.652344l56 72c1.09375 1.402344 1.6875 3.128906 1.6875 4.910156v104h40v-117.480469l-54.550781-77.933593c-1.546875-2.210938-1.878907-5.050782-.882813-7.554688l32-80c1.421875-3.566406 5.175782-5.621094 8.945313-4.894531 3.769531.726562 6.492187 4.023437 6.488281 7.863281v70.929688zm0 0"/><path d="m330.472656 387.128906-75.769531-51.128906h-22.976563l87.9375 59.328125c2.976563-3.472656 6.660157-6.269531 10.808594-8.199219zm0 0"/><path d="m432 424c-4.417969 0-8-3.582031-8-8 0-8.835938-7.164062-16-16-16h-8c-4.417969 0-8-3.582031-8-8 0-8.835938-7.164062-16-16-16s-16 7.164062-16 16c0 4.417969-3.582031 8-8 8h-8c-8.835938 0-16 7.164062-16 16 0 4.417969-3.582031 8-8 8-8.835938 0-16 7.164062-16 16v8h144v-8c0-8.835938-7.164062-16-16-16zm-72 8h-16v-16h16zm32-8h-16v-16h16zm0 0"/></svg>